<svg version="1.1" xmlns="http://www.w3.org/2000/svg" viewBox="0 0 1255.2866142208313 691.720362450501" width="1255.2866142208313" height="691.720362450501">
  <!-- svg-source:excalidraw -->
  
  <defs>
    <style class="style-fonts">
      @font-face {
        font-family: "Virgil";
        src: url("https://excalidraw.com/Virgil.woff2");
      }
      @font-face {
        font-family: "Cascadia";
        src: url("https://excalidraw.com/Cascadia.woff2");
      }
    </style>
    
  </defs>
  <g stroke-linecap="round" transform="translate(592.9532808874982 18.525918006056486) rotate(0 313.16666666666663 232.99999999999991)"><path d="M32 0 M32 0 C164.63 1.79, 296.51 1.09, 594.33 0 M32 0 C148.32 -1.06, 264.45 -0.64, 594.33 0 M594.33 0 C616.27 0.55, 626.15 8.67, 626.33 32 M594.33 0 C613.64 0.75, 628.48 9.05, 626.33 32 M626.33 32 C626.47 185.11, 626.27 339.56, 626.33 434 M626.33 32 C628.07 115.31, 628.2 198.96, 626.33 434 M626.33 434 C625.73 457.02, 617.02 464.01, 594.33 466 M626.33 434 C625.32 454.77, 615.57 464.3, 594.33 466 M594.33 466 C411.09 464.58, 227.79 464.12, 32 466 M594.33 466 C465.4 464.52, 336.34 464.5, 32 466 M32 466 C8.91 464.74, -1.89 456.25, 0 434 M32 466 C11.68 464.75, -0.91 453.16, 0 434 M0 434 C0.11 276.5, -0.4 120.45, 0 32 M0 434 C0.98 310.97, 1.07 187.92, 0 32 M0 32 C0.17 9.61, 11.56 -0.09, 32 0 M0 32 C-2.13 9.45, 10.92 -0.82, 32 0" stroke="#000000" stroke-width="1" fill="none"></path></g><g transform="translate(633.609370064705 36.02591800605637) rotate(0 275.3583374023437 217.6448557001484)"><text x="0" y="0" font-family="Virgil, Segoe UI Emoji" font-size="16.582465196201785px" fill="#000000" text-anchor="start" style="white-space: pre;" direction="ltr" dominant-baseline="text-before-edge">typedef struct _PEB {</text><text x="0" y="20.72808149525223" font-family="Virgil, Segoe UI Emoji" font-size="16.582465196201785px" fill="#000000" text-anchor="start" style="white-space: pre;" direction="ltr" dominant-baseline="text-before-edge">  BYTE                          Reserved1[2];</text><text x="0" y="41.45616299050446" font-family="Virgil, Segoe UI Emoji" font-size="16.582465196201785px" fill="#000000" text-anchor="start" style="white-space: pre;" direction="ltr" dominant-baseline="text-before-edge">  BYTE                          BeingDebugged;</text><text x="0" y="62.18424448575669" font-family="Virgil, Segoe UI Emoji" font-size="16.582465196201785px" fill="#000000" text-anchor="start" style="white-space: pre;" direction="ltr" dominant-baseline="text-before-edge">  BYTE                          Reserved2[1];</text><text x="0" y="82.91232598100892" font-family="Virgil, Segoe UI Emoji" font-size="16.582465196201785px" fill="#000000" text-anchor="start" style="white-space: pre;" direction="ltr" dominant-baseline="text-before-edge">  PVOID                         Reserved3[2];</text><text x="0" y="103.64040747626115" font-family="Virgil, Segoe UI Emoji" font-size="16.582465196201785px" fill="#000000" text-anchor="start" style="white-space: pre;" direction="ltr" dominant-baseline="text-before-edge">  PPEB_LDR_DATA                 Ldr;</text><text x="0" y="124.36848897151339" font-family="Virgil, Segoe UI Emoji" font-size="16.582465196201785px" fill="#000000" text-anchor="start" style="white-space: pre;" direction="ltr" dominant-baseline="text-before-edge">  PRTL_USER_PROCESS_PARAMETERS  ProcessParameters;</text><text x="0" y="145.0965704667656" font-family="Virgil, Segoe UI Emoji" font-size="16.582465196201785px" fill="#000000" text-anchor="start" style="white-space: pre;" direction="ltr" dominant-baseline="text-before-edge">  PVOID                         Reserved4[3];</text><text x="0" y="165.82465196201784" font-family="Virgil, Segoe UI Emoji" font-size="16.582465196201785px" fill="#000000" text-anchor="start" style="white-space: pre;" direction="ltr" dominant-baseline="text-before-edge">  PVOID                         AtlThunkSListPtr;</text><text x="0" y="186.55273345727008" font-family="Virgil, Segoe UI Emoji" font-size="16.582465196201785px" fill="#000000" text-anchor="start" style="white-space: pre;" direction="ltr" dominant-baseline="text-before-edge">  PVOID                         Reserved5;</text><text x="0" y="207.2808149525223" font-family="Virgil, Segoe UI Emoji" font-size="16.582465196201785px" fill="#000000" text-anchor="start" style="white-space: pre;" direction="ltr" dominant-baseline="text-before-edge">  ULONG                         Reserved6;</text><text x="0" y="228.00889644777453" font-family="Virgil, Segoe UI Emoji" font-size="16.582465196201785px" fill="#000000" text-anchor="start" style="white-space: pre;" direction="ltr" dominant-baseline="text-before-edge">  PVOID                         Reserved7;</text><text x="0" y="248.73697794302677" font-family="Virgil, Segoe UI Emoji" font-size="16.582465196201785px" fill="#000000" text-anchor="start" style="white-space: pre;" direction="ltr" dominant-baseline="text-before-edge">  ULONG                         Reserved8;</text><text x="0" y="269.465059438279" font-family="Virgil, Segoe UI Emoji" font-size="16.582465196201785px" fill="#000000" text-anchor="start" style="white-space: pre;" direction="ltr" dominant-baseline="text-before-edge">  ULONG                         AtlThunkSListPtr32;</text><text x="0" y="290.1931409335312" font-family="Virgil, Segoe UI Emoji" font-size="16.582465196201785px" fill="#000000" text-anchor="start" style="white-space: pre;" direction="ltr" dominant-baseline="text-before-edge">  PVOID                         Reserved9[45];</text><text x="0" y="310.92122242878344" font-family="Virgil, Segoe UI Emoji" font-size="16.582465196201785px" fill="#000000" text-anchor="start" style="white-space: pre;" direction="ltr" dominant-baseline="text-before-edge">  BYTE                          Reserved10[96];</text><text x="0" y="331.6493039240357" font-family="Virgil, Segoe UI Emoji" font-size="16.582465196201785px" fill="#000000" text-anchor="start" style="white-space: pre;" direction="ltr" dominant-baseline="text-before-edge">  PPS_POST_PROCESS_INIT_ROUTINE PostProcessInitRoutine;</text><text x="0" y="352.3773854192879" font-family="Virgil, Segoe UI Emoji" font-size="16.582465196201785px" fill="#000000" text-anchor="start" style="white-space: pre;" direction="ltr" dominant-baseline="text-before-edge">  BYTE                          Reserved11[128];</text><text x="0" y="373.10546691454016" font-family="Virgil, Segoe UI Emoji" font-size="16.582465196201785px" fill="#000000" text-anchor="start" style="white-space: pre;" direction="ltr" dominant-baseline="text-before-edge">  PVOID                         Reserved12[1];</text><text x="0" y="393.83354840979234" font-family="Virgil, Segoe UI Emoji" font-size="16.582465196201785px" fill="#000000" text-anchor="start" style="white-space: pre;" direction="ltr" dominant-baseline="text-before-edge">  ULONG                         SessionId;</text><text x="0" y="414.5616299050446" font-family="Virgil, Segoe UI Emoji" font-size="16.582465196201785px" fill="#000000" text-anchor="start" style="white-space: pre;" direction="ltr" dominant-baseline="text-before-edge">} PEB, *PPEB;</text></g><g stroke-linecap="round" transform="translate(46.95328088749817 30.192584672723) rotate(0 43.333333333333314 55.00000000000006)"><path d="M26.82 4.52 C32.71 0.68, 41.37 -0.36, 48.54 0.69 C55.7 1.74, 63.9 4.99, 69.82 10.79 C75.74 16.6, 81.28 26.86, 84.04 35.51 C86.8 44.16, 87.45 53.67, 86.4 62.72 C85.35 71.76, 82.38 82.7, 77.75 89.78 C73.12 96.86, 65.34 101.97, 58.62 105.21 C51.9 108.46, 44.35 110.33, 37.41 109.25 C30.48 108.16, 22.58 104.26, 17 98.69 C11.41 93.12, 6.62 84.4, 3.91 75.84 C1.2 67.27, -0.27 56.43, 0.75 47.3 C1.77 38.18, 4.77 28.59, 10.03 21.07 C15.29 13.56, 27.91 5.32, 32.28 2.2 C36.66 -0.91, 36.18 1.66, 36.26 2.38 M46.02 0.81 C52.63 0.64, 60.91 4.66, 67.08 9.67 C73.24 14.67, 79.93 22.67, 83.02 30.86 C86.1 39.05, 86.17 49.51, 85.59 58.8 C85.02 68.09, 83.33 78.93, 79.55 86.59 C75.77 94.25, 69.34 100.78, 62.9 104.76 C56.45 108.74, 48.08 111.32, 40.88 110.47 C33.69 109.61, 25.78 105.12, 19.74 99.63 C13.69 94.14, 8.06 85.48, 4.59 77.53 C1.12 69.58, -1.81 60.88, -1.07 51.93 C-0.34 42.97, 4.9 31.43, 9.02 23.77 C13.14 16.12, 17.3 10.15, 23.64 5.97 C29.97 1.79, 43.14 -0.39, 47.01 -1.3 C50.88 -2.2, 46.94 -0.4, 46.84 0.56" stroke="#000000" stroke-width="1" fill="none"></path></g><g stroke-linecap="round"><g transform="translate(86.95328088749817 140.19258467272311) rotate(0 -1.8339482879887186 86.00125116139029)"><path d="M0.75 -0.28 C0.1 28.19, -3.81 143.13, -4.41 171.85 M-0.32 -1.48 C-0.56 27.74, -1.76 144.92, -2.27 173.48" stroke="#000000" stroke-width="1" fill="none"></path></g></g><mask></mask><g stroke-linecap="round"><g transform="translate(81.95328088749817 310.192584672723) rotate(0 41.188618494163556 39.853194319829356)"><path d="M1.03 -1.03 C14.78 12.32, 68.67 67.24, 82.26 80.74 M0.12 1.04 C13.78 14, 67.93 65.63, 81.62 79" stroke="#000000" stroke-width="1" fill="none"></path></g></g><mask></mask><g stroke-linecap="round"><g transform="translate(80.28661422083154 308.5259180060564) rotate(0 -34.48101375082507 35.875609214215814)"><path d="M-0.57 -0.02 C-12.14 11.97, -58.19 60.72, -69.57 72.83 M1.32 -1.07 C-10.35 10.54, -58.56 59.34, -70.29 71.31" stroke="#000000" stroke-width="1" fill="none"></path></g></g><mask></mask><g stroke-linecap="round"><g transform="translate(85.28661422083154 201.85925133938974) rotate(0 51.6329530195457 -15.751460175023766)"><path d="M1.19 -1.03 C17.99 -6.08, 83.76 -25.79, 100.7 -30.85 M0.36 1.04 C17.53 -4.3, 85.86 -27.38, 102.91 -32.54" stroke="#000000" stroke-width="1" fill="none"></path></g></g><mask></mask><g stroke-linecap="round"><g transform="translate(83.61994755416491 200.192584672723) rotate(0 -31.063059153516484 -16.583659533948293)"><path d="M0.37 -1.05 C-10.17 -6.73, -51.35 -28.83, -62.16 -34.18 M-0.9 1.01 C-11.59 -4.53, -52.27 -27.63, -62.49 -33.09" stroke="#000000" stroke-width="1" fill="none"></path></g></g><mask></mask><g stroke-linecap="round" transform="translate(65.28661422083154 56.85925133938974) rotate(0 4.166666666666629 4.166666666666686)"><path d="M5.57 -0.44 C6.25 -0.41, 6.56 0.06, 7 0.7 C7.44 1.35, 8.16 2.49, 8.21 3.43 C8.26 4.38, 7.81 5.55, 7.31 6.37 C6.8 7.19, 6.08 8.28, 5.18 8.36 C4.29 8.43, 2.8 7.38, 1.93 6.82 C1.06 6.26, 0.28 5.52, -0.02 4.99 C-0.32 4.45, -0.34 4.21, 0.13 3.59 C0.61 2.97, 1.94 1.87, 2.81 1.25 C3.68 0.63, 4.89 -0.14, 5.35 -0.15 C5.81 -0.16, 5.66 0.94, 5.6 1.19 M7.4 -0.55 C8.29 -0.08, 8.34 2.55, 8.42 3.56 C8.51 4.57, 8.31 4.89, 7.92 5.53 C7.53 6.17, 6.7 6.91, 6.08 7.42 C5.46 7.93, 4.79 8.63, 4.21 8.6 C3.64 8.56, 3.37 7.67, 2.66 7.22 C1.95 6.77, 0.47 7.04, -0.06 5.9 C-0.59 4.76, -1.04 1.45, -0.51 0.39 C0.01 -0.67, 1.95 -0.68, 3.11 -0.47 C4.27 -0.26, 5.93 1.44, 6.45 1.63 C6.96 1.81, 6.14 0.66, 6.2 0.61" stroke="#000000" stroke-width="1" fill="none"></path></g><g stroke-linecap="round" transform="translate(90.28661422083154 58.52591800605637) rotate(0 3.3333333333333144 5)"><path d="M4.17 -0.15 C4.81 0.12, 6.36 0.99, 6.88 2.16 C7.41 3.33, 7.59 5.71, 7.33 6.86 C7.07 8, 5.85 8.61, 5.33 9.03 C4.82 9.44, 4.88 9.29, 4.23 9.37 C3.59 9.45, 2.18 10.09, 1.45 9.52 C0.72 8.95, 0.07 7.14, -0.14 5.94 C-0.35 4.73, -0.27 3.21, 0.17 2.29 C0.62 1.38, 1.55 0.68, 2.55 0.45 C3.54 0.22, 5.63 0.57, 6.14 0.92 C6.66 1.26, 5.97 2.61, 5.64 2.52 M4.57 0.3 C5.38 0.33, 5.19 1.62, 5.63 2.23 C6.07 2.83, 7.12 3.19, 7.21 3.94 C7.3 4.69, 6.87 5.53, 6.18 6.71 C5.49 7.9, 3.86 10.56, 3.06 11.05 C2.26 11.54, 2.01 10.05, 1.39 9.65 C0.77 9.26, -0.54 9.45, -0.64 8.69 C-0.75 7.92, 0.55 6.39, 0.77 5.04 C0.98 3.69, 0.33 1.48, 0.65 0.61 C0.97 -0.26, 2.25 0.14, 2.68 -0.19 C3.11 -0.51, 2.88 -1.29, 3.24 -1.35" stroke="#000000" stroke-width="1" fill="none"></path></g><g transform="translate(66.95328088749817 96.85925133938974) rotate(0 19.166666666666686 16.666666666666686)" stroke="none"><path fill="#000000" d="M 1.05,-2.11 Q 1.05,-2.11 2.11,-1.60 3.17,-1.09 4.05,-0.04 4.92,1.00 6.03,2.79 7.15,4.59 7.68,5.77 8.20,6.96 8.87,8.47 9.54,9.98 10.26,11.62 10.99,13.25 11.39,15.18 11.79,17.10 11.90,18.19 12.00,19.28 12.72,20.16 13.44,21.05 14.49,22.06 15.55,23.08 16.50,24.74 17.45,26.41 17.95,27.52 18.44,28.63 18.66,29.70 18.88,30.76 20.00,30.75 21.12,30.74 23.06,28.77 25.01,26.81 26.48,25.21 27.95,23.61 28.85,21.94 29.75,20.28 30.06,19.10 30.37,17.93 31.11,16.57 31.85,15.22 32.97,13.54 34.09,11.87 34.89,10.38 35.69,8.89 35.93,8.50 36.18,8.10 36.54,7.81 36.89,7.52 37.33,7.35 37.76,7.19 38.22,7.17 38.69,7.15 39.13,7.28 39.58,7.42 39.95,7.68 40.33,7.95 40.61,8.32 40.88,8.70 41.02,9.14 41.16,9.58 41.15,10.04 41.15,10.51 40.99,10.94 40.84,11.38 40.55,11.74 40.26,12.11 39.87,12.36 39.49,12.61 39.04,12.73 38.59,12.85 38.13,12.81 37.66,12.78 37.24,12.60 36.81,12.42 36.46,12.12 36.11,11.81 35.88,11.41 35.65,11.01 35.56,10.56 35.47,10.10 35.52,9.64 35.58,9.18 35.78,8.76 35.99,8.35 36.31,8.02 36.63,7.69 37.05,7.48 37.46,7.27 37.92,7.20 38.38,7.13 38.83,7.21 39.29,7.30 39.70,7.52 40.10,7.75 40.41,8.09 40.73,8.43 40.91,8.85 41.10,9.28 41.14,9.74 41.19,10.20 41.08,10.65 40.97,11.10 40.97,11.10 40.97,11.10 39.74,12.58 38.51,14.05 37.69,14.92 36.88,15.78 36.05,17.55 35.22,19.31 34.80,20.78 34.39,22.25 33.59,24.56 32.78,26.87 31.69,28.50 30.60,30.14 28.97,31.26 27.33,32.37 26.18,33.40 25.03,34.42 24.08,35.12 23.13,35.82 20.67,35.91 18.20,35.99 17.00,35.57 15.79,35.14 14.49,33.11 13.18,31.09 12.82,29.72 12.45,28.36 11.69,26.66 10.94,24.96 10.00,23.80 9.06,22.65 8.31,21.61 7.56,20.57 7.39,19.30 7.21,18.04 6.94,16.69 6.66,15.34 5.81,13.77 4.95,12.21 4.15,10.69 3.36,9.18 2.67,7.34 1.99,5.50 1.32,4.25 0.65,3.01 -0.20,2.56 -1.05,2.11 -1.29,1.96 -1.53,1.80 -1.72,1.59 -1.92,1.38 -2.05,1.13 -2.19,0.88 -2.27,0.60 -2.34,0.33 -2.35,0.04 -2.35,-0.23 -2.29,-0.51 -2.23,-0.79 -2.10,-1.05 -1.97,-1.30 -1.78,-1.52 -1.60,-1.74 -1.37,-1.90 -1.14,-2.07 -0.87,-2.18 -0.61,-2.28 -0.32,-2.32 -0.04,-2.36 0.23,-2.33 0.52,-2.30 0.79,-2.21 1.05,-2.11 1.05,-2.11 L 1.05,-2.11 Z"></path></g><g stroke-linecap="round"><g transform="translate(188.6199475541648 150.192584672723) rotate(0 187.4305467668362 -49.76928443275392)"><path d="M0.18 0.59 C62.66 -16.11, 313.46 -83.22, 376.05 -100.13 M-1.18 -0.14 C61.12 -16.65, 312.9 -82.02, 375.65 -98.66" stroke="#000000" stroke-width="1" fill="none"></path></g><g transform="translate(188.6199475541648 150.192584672723) rotate(0 187.4305467668362 -49.76928443275392)"><path d="M351.96 -79.84 C360.57 -87.26, 369.2 -96.59, 376.39 -97.58 M350.66 -81.52 C357.99 -86.31, 365.86 -92.06, 374.81 -98.21" stroke="#000000" stroke-width="1" fill="none"></path></g><g transform="translate(188.6199475541648 150.192584672723) rotate(0 187.4305467668362 -49.76928443275392)"><path d="M346.76 -99.7 C357.45 -99.22, 368.14 -100.65, 376.39 -97.58 M345.46 -101.37 C354.17 -100.14, 363.62 -99.86, 374.81 -98.21" stroke="#000000" stroke-width="1" fill="none"></path></g></g><mask></mask><g transform="translate(194.50503173653877 45.29615284539409) rotate(345.5730772026756 144.8333282470703 25)"><text x="0" y="0" font-family="Virgil, Segoe UI Emoji" font-size="20px" fill="#000000" text-anchor="start" style="white-space: pre;" direction="ltr" dominant-baseline="text-before-edge">Get PEB address of process</text><text x="0" y="25" font-family="Virgil, Segoe UI Emoji" font-size="20px" fill="#000000" text-anchor="start" style="white-space: pre;" direction="ltr" dominant-baseline="text-before-edge">created in suspended state</text></g><g stroke-linecap="round" transform="translate(643.6199475541649 154.63702911716774) rotate(0 255.55555555555554 13.888888888888886)"><path d="M6.94 0 M6.94 0 C184.12 -1.05, 361.08 -0.65, 504.17 0 M6.94 0 C128.77 -0.36, 251.16 -0.21, 504.17 0 M504.17 0 C509.8 -0.09, 509.79 1.2, 511.11 6.94 M504.17 0 C507.96 2.29, 510.6 1.01, 511.11 6.94 M511.11 6.94 C509.89 11.62, 511.72 14.68, 511.11 20.83 M511.11 6.94 C511.56 10.69, 511.5 14.34, 511.11 20.83 M511.11 20.83 C509.96 25.98, 509.64 27.16, 504.17 27.78 M511.11 20.83 C510.79 25.49, 508.12 27.69, 504.17 27.78 M504.17 27.78 C389.77 28.17, 276.53 28.27, 6.94 27.78 M504.17 27.78 C306.86 27.54, 110.06 27.83, 6.94 27.78 M6.94 27.78 C2.04 28.07, 0.28 23.53, 0 20.83 M6.94 27.78 C0.74 26.2, -1.49 24.9, 0 20.83 M0 20.83 C1.38 18.11, -0.73 13.46, 0 6.94 M0 20.83 C0.43 16.12, 0.38 12.38, 0 6.94 M0 6.94 C1.69 3.02, 0.73 1.79, 6.94 0 M0 6.94 C-0.26 0.14, 2.89 1.63, 6.94 0" stroke="#e03131" stroke-width="1" fill="none"></path></g><g stroke-linecap="round"><g transform="translate(200.828482077505 206.57480754618894) rotate(0 218.1265114429259 -14.366600122167682)"><path d="M0.99 0.17 C73.32 -4.45, 361.63 -22.38, 433.82 -27.09 M0.05 -0.79 C72.79 -5.81, 364.01 -24.53, 436.2 -28.9" stroke="#1e1e1e" stroke-width="1" fill="none"></path></g><g transform="translate(200.828482077505 206.57480754618894) rotate(0 218.1265114429259 -14.366600122167682)"><path d="M408.99 -17.95 C417.54 -21.11, 423.73 -22.24, 436.14 -29.97 M407.82 -16.35 C416.44 -19.46, 424.65 -23.56, 435.81 -28.3" stroke="#1e1e1e" stroke-width="1" fill="none"></path></g><g transform="translate(200.828482077505 206.57480754618894) rotate(0 218.1265114429259 -14.366600122167682)"><path d="M407.7 -38.43 C416.73 -35.72, 423.29 -30.96, 436.14 -29.97 M406.54 -36.83 C415.53 -34.13, 424.1 -32.41, 435.81 -28.3" stroke="#1e1e1e" stroke-width="1" fill="none"></path></g></g><mask></mask><g transform="translate(151.00334503721635 200.89026552336315) rotate(356.2112718369107 218.71665954589844 25)"><text x="218.71665954589844" y="0" font-family="Virgil, Segoe UI Emoji" font-size="20px" fill="#1e1e1e" text-anchor="middle" style="white-space: pre;" direction="ltr" dominant-baseline="text-before-edge">Patch</text><text x="218.71665954589844" y="25" font-family="Virgil, Segoe UI Emoji" font-size="20px" fill="#1e1e1e" text-anchor="middle" style="white-space: pre;" direction="ltr" dominant-baseline="text-before-edge">Peb-&gt;ProcessParameters.CommandLine.Buffer</text></g><g stroke-linecap="round" transform="translate(579.0366142208314 512.970362450501) rotate(0 333.125 84.375)"><path d="M32 0 M32 0 C210.35 1.29, 387.91 0.33, 634.25 0 M32 0 C228.32 2.03, 425.58 1.78, 634.25 0 M634.25 0 C655.39 -1.41, 665.57 10.88, 666.25 32 M634.25 0 C657.7 -1.11, 665.98 10.86, 666.25 32 M666.25 32 C668.17 71.71, 668.2 112.88, 666.25 136.75 M666.25 32 C667.91 70.22, 668.03 108.98, 666.25 136.75 M666.25 136.75 C665.96 159.59, 654.67 168.78, 634.25 168.75 M666.25 136.75 C668.14 159.87, 655.81 170.83, 634.25 168.75 M634.25 168.75 C513.31 166.14, 391.71 166, 32 168.75 M634.25 168.75 C408.32 168.51, 181.72 168.09, 32 168.75 M32 168.75 C12.12 170.21, -0.01 159.05, 0 136.75 M32 168.75 C9.05 167.47, -0.79 160.12, 0 136.75 M0 136.75 C-1 110.11, 0.33 84.76, 0 32 M0 136.75 C1.43 95.31, 0.43 55.57, 0 32 M0 32 C-0.9 9.97, 9.41 1.99, 32 0 M0 32 C-1.16 10.9, 12.92 1.67, 32 0" stroke="#1e1e1e" stroke-width="1" fill="none"></path></g><g stroke-linecap="round"><g transform="translate(638.7714630758892 179.0034428180703) rotate(0 1.8908320133120924 165.7569392080361)"><path d="M0 1.04 C1.07 55.84, 4.42 274.72, 5.24 329.71 M-1.46 0.54 C-0.45 55.42, 3.34 276.24, 4.24 330.97" stroke="#1e1e1e" stroke-width="1" fill="none"></path></g><g transform="translate(638.7714630758892 179.0034428180703) rotate(0 1.8908320133120924 165.7569392080361)"><path d="M-4.76 302.81 C-4.98 307.93, -0.78 314.73, 2.65 332.31 M-5.6 303.84 C-4 310.45, 0.81 319.57, 3.64 331.11" stroke="#1e1e1e" stroke-width="1" fill="none"></path></g><g transform="translate(638.7714630758892 179.0034428180703) rotate(0 1.8908320133120924 165.7569392080361)"><path d="M15.76 302.46 C11.42 307.65, 11.49 314.52, 2.65 332.31 M14.91 303.49 C10.51 310.04, 9.31 319.26, 3.64 331.11" stroke="#1e1e1e" stroke-width="1" fill="none"></path></g></g><mask></mask><g transform="translate(594.0366142208314 534.220362450501) rotate(0 324.5416564941406 60)"><text x="0" y="0" font-family="Virgil, Segoe UI Emoji" font-size="16px" fill="#1e1e1e" text-anchor="start" style="white-space: pre;" direction="ltr" dominant-baseline="text-before-edge">typedef struct _RTL_USER_PROCESS_PARAMETERS {</text><text x="0" y="20" font-family="Virgil, Segoe UI Emoji" font-size="16px" fill="#1e1e1e" text-anchor="start" style="white-space: pre;" direction="ltr" dominant-baseline="text-before-edge">  BYTE           Reserved1[16];</text><text x="0" y="40" font-family="Virgil, Segoe UI Emoji" font-size="16px" fill="#1e1e1e" text-anchor="start" style="white-space: pre;" direction="ltr" dominant-baseline="text-before-edge">  PVOID          Reserved2[10];</text><text x="0" y="60" font-family="Virgil, Segoe UI Emoji" font-size="16px" fill="#1e1e1e" text-anchor="start" style="white-space: pre;" direction="ltr" dominant-baseline="text-before-edge">  UNICODE_STRING ImagePathName;</text><text x="0" y="80" font-family="Virgil, Segoe UI Emoji" font-size="16px" fill="#1e1e1e" text-anchor="start" style="white-space: pre;" direction="ltr" dominant-baseline="text-before-edge">  UNICODE_STRING CommandLine;</text><text x="0" y="100" font-family="Virgil, Segoe UI Emoji" font-size="16px" fill="#1e1e1e" text-anchor="start" style="white-space: pre;" direction="ltr" dominant-baseline="text-before-edge">} RTL_USER_PROCESS_PARAMETERS, *PRTL_USER_PROCESS_PARAMETERS;</text></g><g stroke-linecap="round" transform="translate(605.9810586652758 615.3314735616123) rotate(0 134.93055555555554 9.513888888888886)"><path d="M4.76 0 M4.76 0 C85.79 0.38, 167.28 0.73, 265.1 0 M4.76 0 C96.03 -1.89, 186.31 -0.85, 265.1 0 M265.1 0 C267.56 -1.12, 270.73 2.01, 269.86 4.76 M265.1 0 C269.92 0.46, 268.31 2.58, 269.86 4.76 M269.86 4.76 C269.05 7.79, 270.01 11.43, 269.86 14.27 M269.86 4.76 C269.68 8.46, 269.62 11.72, 269.86 14.27 M269.86 14.27 C269.77 16.47, 269.32 20.16, 265.1 19.03 M269.86 14.27 C271.37 19.71, 270.42 18.56, 265.1 19.03 M265.1 19.03 C185.75 21.17, 104.69 19.35, 4.76 19.03 M265.1 19.03 C177.98 19.71, 89.33 20.64, 4.76 19.03 M4.76 19.03 C1.83 19.12, -1.04 18.95, 0 14.27 M4.76 19.03 C1.83 18.89, 0.93 17.5, 0 14.27 M0 14.27 C-0.77 11.9, 0.69 8.84, 0 4.76 M0 14.27 C0.31 10.94, 0.5 7.51, 0 4.76 M0 4.76 C-0.03 3.13, -0.12 -1.25, 4.76 0 M0 4.76 C2.13 3.85, 3.11 -0.39, 4.76 0" stroke="#e03131" stroke-width="1" fill="none"></path></g><g transform="translate(107.11161116907361 534.220362450501) rotate(0 188.75833129882812 52.60416666666666)"><text x="0" y="0" font-family="Virgil, Segoe UI Emoji" font-size="16.833333333333332px" fill="#1e1e1e" text-anchor="start" style="white-space: pre;" direction="ltr" dominant-baseline="text-before-edge">typedef struct _UNICODE_STRING {</text><text x="0" y="21.041666666666664" font-family="Virgil, Segoe UI Emoji" font-size="16.833333333333332px" fill="#1e1e1e" text-anchor="start" style="white-space: pre;" direction="ltr" dominant-baseline="text-before-edge">  USHORT Length;</text><text x="0" y="42.08333333333333" font-family="Virgil, Segoe UI Emoji" font-size="16.833333333333332px" fill="#1e1e1e" text-anchor="start" style="white-space: pre;" direction="ltr" dominant-baseline="text-before-edge">  USHORT MaximumLength;</text><text x="0" y="63.12499999999999" font-family="Virgil, Segoe UI Emoji" font-size="16.833333333333332px" fill="#1e1e1e" text-anchor="start" style="white-space: pre;" direction="ltr" dominant-baseline="text-before-edge">  PWSTR  Buffer;</text><text x="0" y="84.16666666666666" font-family="Virgil, Segoe UI Emoji" font-size="16.833333333333332px" fill="#1e1e1e" text-anchor="start" style="white-space: pre;" direction="ltr" dominant-baseline="text-before-edge">} UNICODE_STRING, *PUNICODE_STRING;</text></g><g stroke-linecap="round" transform="translate(75.28661422083142 514.220362450501) rotate(0 220.625 72.5)"><path d="M32 0 M32 0 C177.18 0.88, 321.88 0.36, 409.25 0 M32 0 C148.63 1.22, 266.17 2.23, 409.25 0 M409.25 0 C432.35 0.91, 443.09 11.04, 441.25 32 M409.25 0 C432.51 -1.58, 442.94 9.04, 441.25 32 M441.25 32 C442.65 56.59, 440.43 84.15, 441.25 113 M441.25 32 C440.02 58.3, 440.56 85.88, 441.25 113 M441.25 113 C442.84 132.51, 431.43 145.79, 409.25 145 M441.25 113 C439.55 135.62, 428.33 143.06, 409.25 145 M409.25 145 C326.43 146.03, 244.54 147.65, 32 145 M409.25 145 C318.09 142.99, 226.67 143.09, 32 145 M32 145 C12.35 143.05, -0.02 135.44, 0 113 M32 145 C10.5 146.69, 0.17 135.85, 0 113 M0 113 C0.83 80.71, 0.3 50.39, 0 32 M0 113 C0.3 92.96, 1.11 72.27, 0 32 M0 32 C-1.33 9.85, 12.28 -0.05, 32 0 M0 32 C2.13 9.73, 10.47 -1.19, 32 0" stroke="#1e1e1e" stroke-width="1" fill="none"></path></g><g stroke-linecap="round" transform="translate(112.85605866527588 597.2064735616121) rotate(0 76.18055555555557 10.763888888888886)"><path d="M5.38 0 M5.38 0 C57.28 -0.57, 107.27 -1.51, 146.98 0 M5.38 0 C49.39 0, 94.61 -0.83, 146.98 0 M146.98 0 C150.3 0.99, 153.9 2.6, 152.36 5.38 M146.98 0 C151.17 0.64, 150.63 1.36, 152.36 5.38 M152.36 5.38 C153.25 10.06, 153.09 12.54, 152.36 16.15 M152.36 5.38 C152.29 7.91, 151.93 10.27, 152.36 16.15 M152.36 16.15 C153.73 20.29, 148.85 20.72, 146.98 21.53 M152.36 16.15 C153.23 19.36, 149.9 23.81, 146.98 21.53 M146.98 21.53 C95.72 23.58, 44.53 24.52, 5.38 21.53 M146.98 21.53 C99.7 22.87, 51.52 21.96, 5.38 21.53 M5.38 21.53 C1.98 22.79, 0.15 21.25, 0 16.15 M5.38 21.53 C2.25 19.56, 0.7 18.6, 0 16.15 M0 16.15 C0.4 12.33, 0.53 10.1, 0 5.38 M0 16.15 C0.06 12.42, -0.05 8.97, 0 5.38 M0 5.38 C0.66 2.9, 3.77 -0.91, 5.38 0 M0 5.38 C0.84 -0.48, 1.62 1.79, 5.38 0" stroke="#e03131" stroke-width="1" fill="none"></path></g><g stroke-linecap="round"><g transform="translate(604.0366142208314 624.220362450501) rotate(0 -164.79924876747654 -7.5172548595257105)"><path d="M0.63 1.14 C-54.23 -1.43, -274.55 -11.7, -329.53 -14.38 M-0.5 0.69 C-55.45 -1.71, -275.38 -13.79, -330.23 -16.17" stroke="#1e1e1e" stroke-width="1" fill="none"></path></g><g transform="translate(604.0366142208314 624.220362450501) rotate(0 -164.79924876747654 -7.5172548595257105)"><path d="M-299.66 -24.23 C-308.19 -21.15, -316.88 -19.91, -328.59 -16.8 M-300.77 -24.98 C-309.64 -22.34, -315.9 -20.24, -330.31 -15.79" stroke="#1e1e1e" stroke-width="1" fill="none"></path></g><g transform="translate(604.0366142208314 624.220362450501) rotate(0 -164.79924876747654 -7.5172548595257105)"><path d="M-300.68 -3.73 C-309.11 -6.2, -317.52 -10.49, -328.59 -16.8 M-301.79 -4.48 C-310.52 -7.09, -316.52 -10.22, -330.31 -15.79" stroke="#1e1e1e" stroke-width="1" fill="none"></path></g></g><mask></mask></svg>